<?xml version="1.0" encoding="utf-8" standalone="no"?>
<!DOCTYPE svg PUBLIC "-//W3C//DTD SVG 1.1//EN"
  "http://www.w3.org/Graphics/SVG/1.1/DTD/svg11.dtd">
<svg xmlns:xlink="http://www.w3.org/1999/xlink" width="417.045415pt" height="327.024406pt" viewBox="0 0 417.045415 327.024406" xmlns="http://www.w3.org/2000/svg" version="1.1">
 <metadata>
  <rdf:RDF xmlns:dc="http://purl.org/dc/elements/1.1/" xmlns:cc="http://creativecommons.org/ns#" xmlns:rdf="http://www.w3.org/1999/02/22-rdf-syntax-ns#">
   <cc:Work>
    <dc:type rdf:resource="http://purl.org/dc/dcmitype/StillImage"/>
    <dc:date>2026-01-06T23:27:11.904778</dc:date>
    <dc:format>image/svg+xml</dc:format>
    <dc:creator>
     <cc:Agent>
      <dc:title>Matplotlib v3.10.8, https://matplotlib.org/</dc:title>
     </cc:Agent>
    </dc:creator>
   </cc:Work>
  </rdf:RDF>
 </metadata>
 <defs>
  <style type="text/css">*{stroke-linejoin: round; stroke-linecap: butt}</style>
 </defs>
 <g id="figure_1">
  <g id="patch_1">
   <path d="M 0 327.024406 
L 417.045415 327.024406 
L 417.045415 0 
L 0 0 
z
" style="fill: #ffffff"/>
  </g>
  <g id="axes_1">
   <g id="patch_2">
    <path d="M 41.97125 289.61925 
L 399.09125 289.61925 
L 399.09125 23.50725 
L 41.97125 23.50725 
z
" style="fill: #e5e5e5"/>
   </g>
   <g id="matplotlib.axis_1">
    <g id="xtick_1">
     <g id="line2d_1">
      <path d="M 68.871199 289.61925 
L 68.871199 23.50725 
" clip-path="url(#p31b511b18b)" style="fill: none; stroke: #ffffff; stroke-width: 0.8; stroke-linecap: square"/>
     </g>
     <g id="line2d_2">
      <defs>
       <path id="mef5a8899c8" d="M 0 0 
L 0 3.5 
" style="stroke: #555555; stroke-width: 0.8"/>
      </defs>
      <g>
       <use xlink:href="#mef5a8899c8" x="68.871199" y="289.61925" style="fill: #555555; stroke: #555555; stroke-width: 0.8"/>
      </g>
     </g>
     <g id="text_1">
      <!-- 2010-01 -->
      <g style="fill: #555555" transform="translate(52.358308 303.061281) scale(0.09 -0.09)">
       <defs>
        <path id="ArialMT-32" d="M 3222 541 
L 3222 0 
L 194 0 
Q 188 203 259 391 
Q 375 700 629 1000 
Q 884 1300 1366 1694 
Q 2113 2306 2375 2664 
Q 2638 3022 2638 3341 
Q 2638 3675 2398 3904 
Q 2159 4134 1775 4134 
Q 1369 4134 1125 3890 
Q 881 3647 878 3216 
L 300 3275 
Q 359 3922 746 4261 
Q 1134 4600 1788 4600 
Q 2447 4600 2831 4234 
Q 3216 3869 3216 3328 
Q 3216 3053 3103 2787 
Q 2991 2522 2730 2228 
Q 2469 1934 1863 1422 
Q 1356 997 1212 845 
Q 1069 694 975 541 
L 3222 541 
z
" transform="scale(0.015625)"/>
        <path id="ArialMT-30" d="M 266 2259 
Q 266 3072 433 3567 
Q 600 4063 929 4331 
Q 1259 4600 1759 4600 
Q 2128 4600 2406 4451 
Q 2684 4303 2865 4023 
Q 3047 3744 3150 3342 
Q 3253 2941 3253 2259 
Q 3253 1453 3087 958 
Q 2922 463 2592 192 
Q 2263 -78 1759 -78 
Q 1097 -78 719 397 
Q 266 969 266 2259 
z
M 844 2259 
Q 844 1131 1108 757 
Q 1372 384 1759 384 
Q 2147 384 2411 759 
Q 2675 1134 2675 2259 
Q 2675 3391 2411 3762 
Q 2147 4134 1753 4134 
Q 1366 4134 1134 3806 
Q 844 3388 844 2259 
z
" transform="scale(0.015625)"/>
        <path id="ArialMT-31" d="M 2384 0 
L 1822 0 
L 1822 3584 
Q 1619 3391 1289 3197 
Q 959 3003 697 2906 
L 697 3450 
Q 1169 3672 1522 3987 
Q 1875 4303 2022 4600 
L 2384 4600 
L 2384 0 
z
" transform="scale(0.015625)"/>
        <path id="ArialMT-2d" d="M 203 1375 
L 203 1941 
L 1931 1941 
L 1931 1375 
L 203 1375 
z
" transform="scale(0.015625)"/>
       </defs>
       <use xlink:href="#ArialMT-32"/>
       <use xlink:href="#ArialMT-30" transform="translate(55.615234 0)"/>
       <use xlink:href="#ArialMT-31" transform="translate(111.230469 0)"/>
       <use xlink:href="#ArialMT-30" transform="translate(166.845703 0)"/>
       <use xlink:href="#ArialMT-2d" transform="translate(222.460938 0)"/>
       <use xlink:href="#ArialMT-30" transform="translate(255.761719 0)"/>
       <use xlink:href="#ArialMT-31" transform="translate(311.376953 0)"/>
      </g>
     </g>
    </g>
    <g id="xtick_2">
     <g id="line2d_3">
      <path d="M 108.87328 289.61925 
L 108.87328 23.50725 
" clip-path="url(#p31b511b18b)" style="fill: none; stroke: #ffffff; stroke-width: 0.8; stroke-linecap: square"/>
     </g>
     <g id="line2d_4">
      <g>
       <use xlink:href="#mef5a8899c8" x="108.87328" y="289.61925" style="fill: #555555; stroke: #555555; stroke-width: 0.8"/>
      </g>
     </g>
     <g id="text_2">
      <!-- 2010-04 -->
      <g style="fill: #555555" transform="translate(92.36039 303.061281) scale(0.09 -0.09)">
       <defs>
        <path id="ArialMT-34" d="M 2069 0 
L 2069 1097 
L 81 1097 
L 81 1613 
L 2172 4581 
L 2631 4581 
L 2631 1613 
L 3250 1613 
L 3250 1097 
L 2631 1097 
L 2631 0 
L 2069 0 
z
M 2069 1613 
L 2069 3678 
L 634 1613 
L 2069 1613 
z
" transform="scale(0.015625)"/>
       </defs>
       <use xlink:href="#ArialMT-32"/>
       <use xlink:href="#ArialMT-30" transform="translate(55.615234 0)"/>
       <use xlink:href="#ArialMT-31" transform="translate(111.230469 0)"/>
       <use xlink:href="#ArialMT-30" transform="translate(166.845703 0)"/>
       <use xlink:href="#ArialMT-2d" transform="translate(222.460938 0)"/>
       <use xlink:href="#ArialMT-30" transform="translate(255.761719 0)"/>
       <use xlink:href="#ArialMT-34" transform="translate(311.376953 0)"/>
      </g>
     </g>
    </g>
    <g id="xtick_3">
     <g id="line2d_5">
      <path d="M 149.319829 289.61925 
L 149.319829 23.50725 
" clip-path="url(#p31b511b18b)" style="fill: none; stroke: #ffffff; stroke-width: 0.8; stroke-linecap: square"/>
     </g>
     <g id="line2d_6">
      <g>
       <use xlink:href="#mef5a8899c8" x="149.319829" y="289.61925" style="fill: #555555; stroke: #555555; stroke-width: 0.8"/>
      </g>
     </g>
     <g id="text_3">
      <!-- 2010-07 -->
      <g style="fill: #555555" transform="translate(132.806938 303.061281) scale(0.09 -0.09)">
       <defs>
        <path id="ArialMT-37" d="M 303 3981 
L 303 4522 
L 3269 4522 
L 3269 4084 
Q 2831 3619 2401 2847 
Q 1972 2075 1738 1259 
Q 1569 684 1522 0 
L 944 0 
Q 953 541 1156 1306 
Q 1359 2072 1739 2783 
Q 2119 3494 2547 3981 
L 303 3981 
z
" transform="scale(0.015625)"/>
       </defs>
       <use xlink:href="#ArialMT-32"/>
       <use xlink:href="#ArialMT-30" transform="translate(55.615234 0)"/>
       <use xlink:href="#ArialMT-31" transform="translate(111.230469 0)"/>
       <use xlink:href="#ArialMT-30" transform="translate(166.845703 0)"/>
       <use xlink:href="#ArialMT-2d" transform="translate(222.460938 0)"/>
       <use xlink:href="#ArialMT-30" transform="translate(255.761719 0)"/>
       <use xlink:href="#ArialMT-37" transform="translate(311.376953 0)"/>
      </g>
     </g>
    </g>
    <g id="xtick_4">
     <g id="line2d_7">
      <path d="M 190.210845 289.61925 
L 190.210845 23.50725 
" clip-path="url(#p31b511b18b)" style="fill: none; stroke: #ffffff; stroke-width: 0.8; stroke-linecap: square"/>
     </g>
     <g id="line2d_8">
      <g>
       <use xlink:href="#mef5a8899c8" x="190.210845" y="289.61925" style="fill: #555555; stroke: #555555; stroke-width: 0.8"/>
      </g>
     </g>
     <g id="text_4">
      <!-- 2010-10 -->
      <g style="fill: #555555" transform="translate(173.697955 303.061281) scale(0.09 -0.09)">
       <use xlink:href="#ArialMT-32"/>
       <use xlink:href="#ArialMT-30" transform="translate(55.615234 0)"/>
       <use xlink:href="#ArialMT-31" transform="translate(111.230469 0)"/>
       <use xlink:href="#ArialMT-30" transform="translate(166.845703 0)"/>
       <use xlink:href="#ArialMT-2d" transform="translate(222.460938 0)"/>
       <use xlink:href="#ArialMT-31" transform="translate(255.761719 0)"/>
       <use xlink:href="#ArialMT-30" transform="translate(311.376953 0)"/>
      </g>
     </g>
    </g>
    <g id="xtick_5">
     <g id="line2d_9">
      <path d="M 231.101862 289.61925 
L 231.101862 23.50725 
" clip-path="url(#p31b511b18b)" style="fill: none; stroke: #ffffff; stroke-width: 0.8; stroke-linecap: square"/>
     </g>
     <g id="line2d_10">
      <g>
       <use xlink:href="#mef5a8899c8" x="231.101862" y="289.61925" style="fill: #555555; stroke: #555555; stroke-width: 0.8"/>
      </g>
     </g>
     <g id="text_5">
      <!-- 2011-01 -->
      <g style="fill: #555555" transform="translate(214.920846 303.061281) scale(0.09 -0.09)">
       <use xlink:href="#ArialMT-32"/>
       <use xlink:href="#ArialMT-30" transform="translate(55.615234 0)"/>
       <use xlink:href="#ArialMT-31" transform="translate(111.230469 0)"/>
       <use xlink:href="#ArialMT-31" transform="translate(159.470703 0)"/>
       <use xlink:href="#ArialMT-2d" transform="translate(215.085938 0)"/>
       <use xlink:href="#ArialMT-30" transform="translate(248.386719 0)"/>
       <use xlink:href="#ArialMT-31" transform="translate(304.001953 0)"/>
      </g>
     </g>
    </g>
    <g id="xtick_6">
     <g id="line2d_11">
      <path d="M 271.103943 289.61925 
L 271.103943 23.50725 
" clip-path="url(#p31b511b18b)" style="fill: none; stroke: #ffffff; stroke-width: 0.8; stroke-linecap: square"/>
     </g>
     <g id="line2d_12">
      <g>
       <use xlink:href="#mef5a8899c8" x="271.103943" y="289.61925" style="fill: #555555; stroke: #555555; stroke-width: 0.8"/>
      </g>
     </g>
     <g id="text_6">
      <!-- 2011-04 -->
      <g style="fill: #555555" transform="translate(254.922927 303.061281) scale(0.09 -0.09)">
       <use xlink:href="#ArialMT-32"/>
       <use xlink:href="#ArialMT-30" transform="translate(55.615234 0)"/>
       <use xlink:href="#ArialMT-31" transform="translate(111.230469 0)"/>
       <use xlink:href="#ArialMT-31" transform="translate(159.470703 0)"/>
       <use xlink:href="#ArialMT-2d" transform="translate(215.085938 0)"/>
       <use xlink:href="#ArialMT-30" transform="translate(248.386719 0)"/>
       <use xlink:href="#ArialMT-34" transform="translate(304.001953 0)"/>
      </g>
     </g>
    </g>
    <g id="xtick_7">
     <g id="line2d_13">
      <path d="M 311.550492 289.61925 
L 311.550492 23.50725 
" clip-path="url(#p31b511b18b)" style="fill: none; stroke: #ffffff; stroke-width: 0.8; stroke-linecap: square"/>
     </g>
     <g id="line2d_14">
      <g>
       <use xlink:href="#mef5a8899c8" x="311.550492" y="289.61925" style="fill: #555555; stroke: #555555; stroke-width: 0.8"/>
      </g>
     </g>
     <g id="text_7">
      <!-- 2011-07 -->
      <g style="fill: #555555" transform="translate(295.369476 303.061281) scale(0.09 -0.09)">
       <use xlink:href="#ArialMT-32"/>
       <use xlink:href="#ArialMT-30" transform="translate(55.615234 0)"/>
       <use xlink:href="#ArialMT-31" transform="translate(111.230469 0)"/>
       <use xlink:href="#ArialMT-31" transform="translate(159.470703 0)"/>
       <use xlink:href="#ArialMT-2d" transform="translate(215.085938 0)"/>
       <use xlink:href="#ArialMT-30" transform="translate(248.386719 0)"/>
       <use xlink:href="#ArialMT-37" transform="translate(304.001953 0)"/>
      </g>
     </g>
    </g>
    <g id="xtick_8">
     <g id="line2d_15">
      <path d="M 352.441508 289.61925 
L 352.441508 23.50725 
" clip-path="url(#p31b511b18b)" style="fill: none; stroke: #ffffff; stroke-width: 0.8; stroke-linecap: square"/>
     </g>
     <g id="line2d_16">
      <g>
       <use xlink:href="#mef5a8899c8" x="352.441508" y="289.61925" style="fill: #555555; stroke: #555555; stroke-width: 0.8"/>
      </g>
     </g>
     <g id="text_8">
      <!-- 2011-10 -->
      <g style="fill: #555555" transform="translate(336.260492 303.061281) scale(0.09 -0.09)">
       <use xlink:href="#ArialMT-32"/>
       <use xlink:href="#ArialMT-30" transform="translate(55.615234 0)"/>
       <use xlink:href="#ArialMT-31" transform="translate(111.230469 0)"/>
       <use xlink:href="#ArialMT-31" transform="translate(159.470703 0)"/>
       <use xlink:href="#ArialMT-2d" transform="translate(215.085938 0)"/>
       <use xlink:href="#ArialMT-31" transform="translate(248.386719 0)"/>
       <use xlink:href="#ArialMT-30" transform="translate(304.001953 0)"/>
      </g>
     </g>
    </g>
    <g id="xtick_9">
     <g id="line2d_17">
      <path d="M 393.332524 289.61925 
L 393.332524 23.50725 
" clip-path="url(#p31b511b18b)" style="fill: none; stroke: #ffffff; stroke-width: 0.8; stroke-linecap: square"/>
     </g>
     <g id="line2d_18">
      <g>
       <use xlink:href="#mef5a8899c8" x="393.332524" y="289.61925" style="fill: #555555; stroke: #555555; stroke-width: 0.8"/>
      </g>
     </g>
     <g id="text_9">
      <!-- 2012-01 -->
      <g style="fill: #555555" transform="translate(376.819634 303.061281) scale(0.09 -0.09)">
       <use xlink:href="#ArialMT-32"/>
       <use xlink:href="#ArialMT-30" transform="translate(55.615234 0)"/>
       <use xlink:href="#ArialMT-31" transform="translate(111.230469 0)"/>
       <use xlink:href="#ArialMT-32" transform="translate(166.845703 0)"/>
       <use xlink:href="#ArialMT-2d" transform="translate(222.460938 0)"/>
       <use xlink:href="#ArialMT-30" transform="translate(255.761719 0)"/>
       <use xlink:href="#ArialMT-31" transform="translate(311.376953 0)"/>
      </g>
     </g>
    </g>
    <g id="text_10">
     <!-- Date -->
     <g style="fill: #555555" transform="translate(207.858125 317.439406) scale(0.12 -0.12)">
      <defs>
       <path id="ArialMT-44" d="M 494 0 
L 494 4581 
L 2072 4581 
Q 2606 4581 2888 4516 
Q 3281 4425 3559 4188 
Q 3922 3881 4101 3404 
Q 4281 2928 4281 2316 
Q 4281 1794 4159 1391 
Q 4038 988 3847 723 
Q 3656 459 3429 307 
Q 3203 156 2883 78 
Q 2563 0 2147 0 
L 494 0 
z
M 1100 541 
L 2078 541 
Q 2531 541 2789 625 
Q 3047 709 3200 863 
Q 3416 1078 3536 1442 
Q 3656 1806 3656 2325 
Q 3656 3044 3420 3430 
Q 3184 3816 2847 3947 
Q 2603 4041 2063 4041 
L 1100 4041 
L 1100 541 
z
" transform="scale(0.015625)"/>
       <path id="ArialMT-61" d="M 2588 409 
Q 2275 144 1986 34 
Q 1697 -75 1366 -75 
Q 819 -75 525 192 
Q 231 459 231 875 
Q 231 1119 342 1320 
Q 453 1522 633 1644 
Q 813 1766 1038 1828 
Q 1203 1872 1538 1913 
Q 2219 1994 2541 2106 
Q 2544 2222 2544 2253 
Q 2544 2597 2384 2738 
Q 2169 2928 1744 2928 
Q 1347 2928 1158 2789 
Q 969 2650 878 2297 
L 328 2372 
Q 403 2725 575 2942 
Q 747 3159 1072 3276 
Q 1397 3394 1825 3394 
Q 2250 3394 2515 3294 
Q 2781 3194 2906 3042 
Q 3031 2891 3081 2659 
Q 3109 2516 3109 2141 
L 3109 1391 
Q 3109 606 3145 398 
Q 3181 191 3288 0 
L 2700 0 
Q 2613 175 2588 409 
z
M 2541 1666 
Q 2234 1541 1622 1453 
Q 1275 1403 1131 1340 
Q 988 1278 909 1158 
Q 831 1038 831 891 
Q 831 666 1001 516 
Q 1172 366 1500 366 
Q 1825 366 2078 508 
Q 2331 650 2450 897 
Q 2541 1088 2541 1459 
L 2541 1666 
z
" transform="scale(0.015625)"/>
       <path id="ArialMT-74" d="M 1650 503 
L 1731 6 
Q 1494 -44 1306 -44 
Q 1000 -44 831 53 
Q 663 150 594 308 
Q 525 466 525 972 
L 525 2881 
L 113 2881 
L 113 3319 
L 525 3319 
L 525 4141 
L 1084 4478 
L 1084 3319 
L 1650 3319 
L 1650 2881 
L 1084 2881 
L 1084 941 
Q 1084 700 1114 631 
Q 1144 563 1211 522 
Q 1278 481 1403 481 
Q 1497 481 1650 503 
z
" transform="scale(0.015625)"/>
       <path id="ArialMT-65" d="M 2694 1069 
L 3275 997 
Q 3138 488 2766 206 
Q 2394 -75 1816 -75 
Q 1088 -75 661 373 
Q 234 822 234 1631 
Q 234 2469 665 2931 
Q 1097 3394 1784 3394 
Q 2450 3394 2872 2941 
Q 3294 2488 3294 1666 
Q 3294 1616 3291 1516 
L 816 1516 
Q 847 969 1125 678 
Q 1403 388 1819 388 
Q 2128 388 2347 550 
Q 2566 713 2694 1069 
z
M 847 1978 
L 2700 1978 
Q 2663 2397 2488 2606 
Q 2219 2931 1791 2931 
Q 1403 2931 1139 2672 
Q 875 2413 847 1978 
z
" transform="scale(0.015625)"/>
      </defs>
      <use xlink:href="#ArialMT-44"/>
      <use xlink:href="#ArialMT-61" transform="translate(72.216797 0)"/>
      <use xlink:href="#ArialMT-74" transform="translate(127.832031 0)"/>
      <use xlink:href="#ArialMT-65" transform="translate(155.615234 0)"/>
     </g>
    </g>
   </g>
   <g id="matplotlib.axis_2">
    <g id="ytick_1">
     <g id="line2d_19">
      <path d="M 41.97125 289.61925 
L 399.09125 289.61925 
" clip-path="url(#p31b511b18b)" style="fill: none; stroke: #ffffff; stroke-width: 0.8; stroke-linecap: square"/>
     </g>
     <g id="line2d_20">
      <defs>
       <path id="mdf3ec91dde" d="M 0 0 
L -3.5 0 
" style="stroke: #555555; stroke-width: 0.8"/>
      </defs>
      <g>
       <use xlink:href="#mdf3ec91dde" x="41.97125" y="289.61925" style="fill: #555555; stroke: #555555; stroke-width: 0.8"/>
      </g>
     </g>
     <g id="text_11">
      <!-- 0.0 -->
      <g style="fill: #555555" transform="translate(22.46125 292.840266) scale(0.09 -0.09)">
       <defs>
        <path id="ArialMT-2e" d="M 581 0 
L 581 641 
L 1222 641 
L 1222 0 
L 581 0 
z
" transform="scale(0.015625)"/>
       </defs>
       <use xlink:href="#ArialMT-30"/>
       <use xlink:href="#ArialMT-2e" transform="translate(55.615234 0)"/>
       <use xlink:href="#ArialMT-30" transform="translate(83.398438 0)"/>
      </g>
     </g>
    </g>
    <g id="ytick_2">
     <g id="line2d_21">
      <path d="M 41.97125 238.93125 
L 399.09125 238.93125 
" clip-path="url(#p31b511b18b)" style="fill: none; stroke: #ffffff; stroke-width: 0.8; stroke-linecap: square"/>
     </g>
     <g id="line2d_22">
      <g>
       <use xlink:href="#mdf3ec91dde" x="41.97125" y="238.93125" style="fill: #555555; stroke: #555555; stroke-width: 0.8"/>
      </g>
     </g>
     <g id="text_12">
      <!-- 0.2 -->
      <g style="fill: #555555" transform="translate(22.46125 242.152266) scale(0.09 -0.09)">
       <use xlink:href="#ArialMT-30"/>
       <use xlink:href="#ArialMT-2e" transform="translate(55.615234 0)"/>
       <use xlink:href="#ArialMT-32" transform="translate(83.398438 0)"/>
      </g>
     </g>
    </g>
    <g id="ytick_3">
     <g id="line2d_23">
      <path d="M 41.97125 188.24325 
L 399.09125 188.24325 
" clip-path="url(#p31b511b18b)" style="fill: none; stroke: #ffffff; stroke-width: 0.8; stroke-linecap: square"/>
     </g>
     <g id="line2d_24">
      <g>
       <use xlink:href="#mdf3ec91dde" x="41.97125" y="188.24325" style="fill: #555555; stroke: #555555; stroke-width: 0.8"/>
      </g>
     </g>
     <g id="text_13">
      <!-- 0.4 -->
      <g style="fill: #555555" transform="translate(22.46125 191.464266) scale(0.09 -0.09)">
       <use xlink:href="#ArialMT-30"/>
       <use xlink:href="#ArialMT-2e" transform="translate(55.615234 0)"/>
       <use xlink:href="#ArialMT-34" transform="translate(83.398438 0)"/>
      </g>
     </g>
    </g>
    <g id="ytick_4">
     <g id="line2d_25">
      <path d="M 41.97125 137.55525 
L 399.09125 137.55525 
" clip-path="url(#p31b511b18b)" style="fill: none; stroke: #ffffff; stroke-width: 0.8; stroke-linecap: square"/>
     </g>
     <g id="line2d_26">
      <g>
       <use xlink:href="#mdf3ec91dde" x="41.97125" y="137.55525" style="fill: #555555; stroke: #555555; stroke-width: 0.8"/>
      </g>
     </g>
     <g id="text_14">
      <!-- 0.6 -->
      <g style="fill: #555555" transform="translate(22.46125 140.776266) scale(0.09 -0.09)">
       <defs>
        <path id="ArialMT-36" d="M 3184 3459 
L 2625 3416 
Q 2550 3747 2413 3897 
Q 2184 4138 1850 4138 
Q 1581 4138 1378 3988 
Q 1113 3794 959 3422 
Q 806 3050 800 2363 
Q 1003 2672 1297 2822 
Q 1591 2972 1913 2972 
Q 2475 2972 2870 2558 
Q 3266 2144 3266 1488 
Q 3266 1056 3080 686 
Q 2894 316 2569 119 
Q 2244 -78 1831 -78 
Q 1128 -78 684 439 
Q 241 956 241 2144 
Q 241 3472 731 4075 
Q 1159 4600 1884 4600 
Q 2425 4600 2770 4297 
Q 3116 3994 3184 3459 
z
M 888 1484 
Q 888 1194 1011 928 
Q 1134 663 1356 523 
Q 1578 384 1822 384 
Q 2178 384 2434 671 
Q 2691 959 2691 1453 
Q 2691 1928 2437 2201 
Q 2184 2475 1800 2475 
Q 1419 2475 1153 2201 
Q 888 1928 888 1484 
z
" transform="scale(0.015625)"/>
       </defs>
       <use xlink:href="#ArialMT-30"/>
       <use xlink:href="#ArialMT-2e" transform="translate(55.615234 0)"/>
       <use xlink:href="#ArialMT-36" transform="translate(83.398438 0)"/>
      </g>
     </g>
    </g>
    <g id="ytick_5">
     <g id="line2d_27">
      <path d="M 41.97125 86.86725 
L 399.09125 86.86725 
" clip-path="url(#p31b511b18b)" style="fill: none; stroke: #ffffff; stroke-width: 0.8; stroke-linecap: square"/>
     </g>
     <g id="line2d_28">
      <g>
       <use xlink:href="#mdf3ec91dde" x="41.97125" y="86.86725" style="fill: #555555; stroke: #555555; stroke-width: 0.8"/>
      </g>
     </g>
     <g id="text_15">
      <!-- 0.8 -->
      <g style="fill: #555555" transform="translate(22.46125 90.088266) scale(0.09 -0.09)">
       <defs>
        <path id="ArialMT-38" d="M 1131 2484 
Q 781 2613 612 2850 
Q 444 3088 444 3419 
Q 444 3919 803 4259 
Q 1163 4600 1759 4600 
Q 2359 4600 2725 4251 
Q 3091 3903 3091 3403 
Q 3091 3084 2923 2848 
Q 2756 2613 2416 2484 
Q 2838 2347 3058 2040 
Q 3278 1734 3278 1309 
Q 3278 722 2862 322 
Q 2447 -78 1769 -78 
Q 1091 -78 675 323 
Q 259 725 259 1325 
Q 259 1772 486 2073 
Q 713 2375 1131 2484 
z
M 1019 3438 
Q 1019 3113 1228 2906 
Q 1438 2700 1772 2700 
Q 2097 2700 2305 2904 
Q 2513 3109 2513 3406 
Q 2513 3716 2298 3927 
Q 2084 4138 1766 4138 
Q 1444 4138 1231 3931 
Q 1019 3725 1019 3438 
z
M 838 1322 
Q 838 1081 952 856 
Q 1066 631 1291 507 
Q 1516 384 1775 384 
Q 2178 384 2440 643 
Q 2703 903 2703 1303 
Q 2703 1709 2433 1975 
Q 2163 2241 1756 2241 
Q 1359 2241 1098 1978 
Q 838 1716 838 1322 
z
" transform="scale(0.015625)"/>
       </defs>
       <use xlink:href="#ArialMT-30"/>
       <use xlink:href="#ArialMT-2e" transform="translate(55.615234 0)"/>
       <use xlink:href="#ArialMT-38" transform="translate(83.398438 0)"/>
      </g>
     </g>
    </g>
    <g id="ytick_6">
     <g id="line2d_29">
      <path d="M 41.97125 36.17925 
L 399.09125 36.17925 
" clip-path="url(#p31b511b18b)" style="fill: none; stroke: #ffffff; stroke-width: 0.8; stroke-linecap: square"/>
     </g>
     <g id="line2d_30">
      <g>
       <use xlink:href="#mdf3ec91dde" x="41.97125" y="36.17925" style="fill: #555555; stroke: #555555; stroke-width: 0.8"/>
      </g>
     </g>
     <g id="text_16">
      <!-- 1.0 -->
      <g style="fill: #555555" transform="translate(22.46125 39.400266) scale(0.09 -0.09)">
       <use xlink:href="#ArialMT-31"/>
       <use xlink:href="#ArialMT-2e" transform="translate(55.615234 0)"/>
       <use xlink:href="#ArialMT-30" transform="translate(83.398438 0)"/>
      </g>
     </g>
    </g>
    <g id="text_17">
     <!-- P(alive) -->
     <g style="fill: #555555" transform="translate(15.935625 176.900437) rotate(-90) scale(0.12 -0.12)">
      <defs>
       <path id="ArialMT-50" d="M 494 0 
L 494 4581 
L 2222 4581 
Q 2678 4581 2919 4538 
Q 3256 4481 3484 4323 
Q 3713 4166 3852 3881 
Q 3991 3597 3991 3256 
Q 3991 2672 3619 2267 
Q 3247 1863 2275 1863 
L 1100 1863 
L 1100 0 
L 494 0 
z
M 1100 2403 
L 2284 2403 
Q 2872 2403 3119 2622 
Q 3366 2841 3366 3238 
Q 3366 3525 3220 3729 
Q 3075 3934 2838 4000 
Q 2684 4041 2272 4041 
L 1100 4041 
L 1100 2403 
z
" transform="scale(0.015625)"/>
       <path id="ArialMT-28" d="M 1497 -1347 
Q 1031 -759 709 28 
Q 388 816 388 1659 
Q 388 2403 628 3084 
Q 909 3875 1497 4659 
L 1900 4659 
Q 1522 4009 1400 3731 
Q 1209 3300 1100 2831 
Q 966 2247 966 1656 
Q 966 153 1900 -1347 
L 1497 -1347 
z
" transform="scale(0.015625)"/>
       <path id="ArialMT-6c" d="M 409 0 
L 409 4581 
L 972 4581 
L 972 0 
L 409 0 
z
" transform="scale(0.015625)"/>
       <path id="ArialMT-69" d="M 425 3934 
L 425 4581 
L 988 4581 
L 988 3934 
L 425 3934 
z
M 425 0 
L 425 3319 
L 988 3319 
L 988 0 
L 425 0 
z
" transform="scale(0.015625)"/>
       <path id="ArialMT-76" d="M 1344 0 
L 81 3319 
L 675 3319 
L 1388 1331 
Q 1503 1009 1600 663 
Q 1675 925 1809 1294 
L 2547 3319 
L 3125 3319 
L 1869 0 
L 1344 0 
z
" transform="scale(0.015625)"/>
       <path id="ArialMT-29" d="M 791 -1347 
L 388 -1347 
Q 1322 153 1322 1656 
Q 1322 2244 1188 2822 
Q 1081 3291 891 3722 
Q 769 4003 388 4659 
L 791 4659 
Q 1378 3875 1659 3084 
Q 1900 2403 1900 1659 
Q 1900 816 1576 28 
Q 1253 -759 791 -1347 
z
" transform="scale(0.015625)"/>
      </defs>
      <use xlink:href="#ArialMT-50"/>
      <use xlink:href="#ArialMT-28" transform="translate(66.699219 0)"/>
      <use xlink:href="#ArialMT-61" transform="translate(100 0)"/>
      <use xlink:href="#ArialMT-6c" transform="translate(155.615234 0)"/>
      <use xlink:href="#ArialMT-69" transform="translate(177.832031 0)"/>
      <use xlink:href="#ArialMT-76" transform="translate(200.048828 0)"/>
      <use xlink:href="#ArialMT-65" transform="translate(250.048828 0)"/>
      <use xlink:href="#ArialMT-29" transform="translate(305.664062 0)"/>
     </g>
    </g>
   </g>
   <g id="line2d_31">
    <path d="M 58.203977 36.17925 
L 62.648653 38.717319 
L 67.982264 42.022017 
L 74.649277 46.438363 
L 83.094161 52.328489 
L 95.539253 61.314065 
L 121.318372 79.968296 
L 133.763464 88.666507 
L 138.20814 91.700113 
L 138.652607 36.17925 
L 145.319621 39.261565 
L 152.431102 42.803146 
L 159.987051 46.825225 
L 167.987467 51.341678 
L 176.876818 56.628171 
L 186.655105 62.714048 
L 197.766794 69.898649 
L 211.545289 79.083173 
L 215.989964 82.088453 
L 216.434432 36.17925 
L 223.990381 39.151711 
L 231.546329 42.369665 
L 239.102278 45.824778 
L 247.102694 49.730337 
L 255.547578 54.113351 
L 263.992462 58.745234 
L 272.881813 63.866546 
L 282.6601 69.759493 
L 293.327321 76.454808 
L 305.327946 84.257064 
L 315.995167 91.374189 
L 316.439635 36.17925 
L 324.884519 38.961777 
L 333.329403 41.980955 
L 341.774286 45.235968 
L 350.21917 48.724097 
L 359.108522 52.642474 
L 367.997873 56.806091 
L 377.331692 61.430555 
L 382.220835 63.951452 
L 382.665303 36.17925 
L 382.665303 36.17925 
" clip-path="url(#p31b511b18b)" style="fill: none; stroke: #e24a33; stroke-width: 1.5; stroke-linecap: square"/>
   </g>
   <g id="LineCollection_1">
    <path d="M 58.351824 289.61925 
L 58.351824 36.17925 
" clip-path="url(#p31b511b18b)" style="fill: none; stroke: #e24a33; stroke-opacity: 0.15; stroke-width: 1.5"/>
    <path d="M 58.351824 289.61925 
L 58.351824 36.17925 
" clip-path="url(#p31b511b18b)" style="fill: none; stroke: #e24a33; stroke-opacity: 0.15; stroke-width: 1.5"/>
    <path d="M 58.351824 289.61925 
L 58.351824 36.17925 
" clip-path="url(#p31b511b18b)" style="fill: none; stroke: #e24a33; stroke-opacity: 0.15; stroke-width: 1.5"/>
    <path d="M 58.351824 289.61925 
L 58.351824 36.17925 
" clip-path="url(#p31b511b18b)" style="fill: none; stroke: #e24a33; stroke-opacity: 0.15; stroke-width: 1.5"/>
    <path d="M 58.351824 289.61925 
L 58.351824 36.17925 
" clip-path="url(#p31b511b18b)" style="fill: none; stroke: #e24a33; stroke-opacity: 0.15; stroke-width: 1.5"/>
    <path d="M 58.351824 289.61925 
L 58.351824 36.17925 
" clip-path="url(#p31b511b18b)" style="fill: none; stroke: #e24a33; stroke-opacity: 0.15; stroke-width: 1.5"/>
    <path d="M 58.351824 289.61925 
L 58.351824 36.17925 
" clip-path="url(#p31b511b18b)" style="fill: none; stroke: #e24a33; stroke-opacity: 0.15; stroke-width: 1.5"/>
    <path d="M 58.351824 289.61925 
L 58.351824 36.17925 
" clip-path="url(#p31b511b18b)" style="fill: none; stroke: #e24a33; stroke-opacity: 0.15; stroke-width: 1.5"/>
    <path d="M 58.351824 289.61925 
L 58.351824 36.17925 
" clip-path="url(#p31b511b18b)" style="fill: none; stroke: #e24a33; stroke-opacity: 0.15; stroke-width: 1.5"/>
    <path d="M 58.351824 289.61925 
L 58.351824 36.17925 
" clip-path="url(#p31b511b18b)" style="fill: none; stroke: #e24a33; stroke-opacity: 0.15; stroke-width: 1.5"/>
    <path d="M 58.351824 289.61925 
L 58.351824 36.17925 
" clip-path="url(#p31b511b18b)" style="fill: none; stroke: #e24a33; stroke-opacity: 0.15; stroke-width: 1.5"/>
    <path d="M 58.351824 289.61925 
L 58.351824 36.17925 
" clip-path="url(#p31b511b18b)" style="fill: none; stroke: #e24a33; stroke-opacity: 0.15; stroke-width: 1.5"/>
    <path d="M 58.351824 289.61925 
L 58.351824 36.17925 
" clip-path="url(#p31b511b18b)" style="fill: none; stroke: #e24a33; stroke-opacity: 0.15; stroke-width: 1.5"/>
    <path d="M 58.351824 289.61925 
L 58.351824 36.17925 
" clip-path="url(#p31b511b18b)" style="fill: none; stroke: #e24a33; stroke-opacity: 0.15; stroke-width: 1.5"/>
    <path d="M 58.351824 289.61925 
L 58.351824 36.17925 
" clip-path="url(#p31b511b18b)" style="fill: none; stroke: #e24a33; stroke-opacity: 0.15; stroke-width: 1.5"/>
    <path d="M 58.351824 289.61925 
L 58.351824 36.17925 
" clip-path="url(#p31b511b18b)" style="fill: none; stroke: #e24a33; stroke-opacity: 0.15; stroke-width: 1.5"/>
    <path d="M 58.351824 289.61925 
L 58.351824 36.17925 
" clip-path="url(#p31b511b18b)" style="fill: none; stroke: #e24a33; stroke-opacity: 0.15; stroke-width: 1.5"/>
    <path d="M 138.883484 289.61925 
L 138.883484 36.17925 
" clip-path="url(#p31b511b18b)" style="fill: none; stroke: #e24a33; stroke-opacity: 0.15; stroke-width: 1.5"/>
    <path d="M 138.883484 289.61925 
L 138.883484 36.17925 
" clip-path="url(#p31b511b18b)" style="fill: none; stroke: #e24a33; stroke-opacity: 0.15; stroke-width: 1.5"/>
    <path d="M 138.883484 289.61925 
L 138.883484 36.17925 
" clip-path="url(#p31b511b18b)" style="fill: none; stroke: #e24a33; stroke-opacity: 0.15; stroke-width: 1.5"/>
    <path d="M 138.883484 289.61925 
L 138.883484 36.17925 
" clip-path="url(#p31b511b18b)" style="fill: none; stroke: #e24a33; stroke-opacity: 0.15; stroke-width: 1.5"/>
    <path d="M 138.883484 289.61925 
L 138.883484 36.17925 
" clip-path="url(#p31b511b18b)" style="fill: none; stroke: #e24a33; stroke-opacity: 0.15; stroke-width: 1.5"/>
    <path d="M 138.883484 289.61925 
L 138.883484 36.17925 
" clip-path="url(#p31b511b18b)" style="fill: none; stroke: #e24a33; stroke-opacity: 0.15; stroke-width: 1.5"/>
    <path d="M 138.883484 289.61925 
L 138.883484 36.17925 
" clip-path="url(#p31b511b18b)" style="fill: none; stroke: #e24a33; stroke-opacity: 0.15; stroke-width: 1.5"/>
    <path d="M 138.883484 289.61925 
L 138.883484 36.17925 
" clip-path="url(#p31b511b18b)" style="fill: none; stroke: #e24a33; stroke-opacity: 0.15; stroke-width: 1.5"/>
    <path d="M 138.883484 289.61925 
L 138.883484 36.17925 
" clip-path="url(#p31b511b18b)" style="fill: none; stroke: #e24a33; stroke-opacity: 0.15; stroke-width: 1.5"/>
    <path d="M 138.883484 289.61925 
L 138.883484 36.17925 
" clip-path="url(#p31b511b18b)" style="fill: none; stroke: #e24a33; stroke-opacity: 0.15; stroke-width: 1.5"/>
    <path d="M 138.883484 289.61925 
L 138.883484 36.17925 
" clip-path="url(#p31b511b18b)" style="fill: none; stroke: #e24a33; stroke-opacity: 0.15; stroke-width: 1.5"/>
    <path d="M 138.883484 289.61925 
L 138.883484 36.17925 
" clip-path="url(#p31b511b18b)" style="fill: none; stroke: #e24a33; stroke-opacity: 0.15; stroke-width: 1.5"/>
    <path d="M 138.883484 289.61925 
L 138.883484 36.17925 
" clip-path="url(#p31b511b18b)" style="fill: none; stroke: #e24a33; stroke-opacity: 0.15; stroke-width: 1.5"/>
    <path d="M 138.883484 289.61925 
L 138.883484 36.17925 
" clip-path="url(#p31b511b18b)" style="fill: none; stroke: #e24a33; stroke-opacity: 0.15; stroke-width: 1.5"/>
    <path d="M 138.883484 289.61925 
L 138.883484 36.17925 
" clip-path="url(#p31b511b18b)" style="fill: none; stroke: #e24a33; stroke-opacity: 0.15; stroke-width: 1.5"/>
    <path d="M 138.883484 289.61925 
L 138.883484 36.17925 
" clip-path="url(#p31b511b18b)" style="fill: none; stroke: #e24a33; stroke-opacity: 0.15; stroke-width: 1.5"/>
    <path d="M 138.883484 289.61925 
L 138.883484 36.17925 
" clip-path="url(#p31b511b18b)" style="fill: none; stroke: #e24a33; stroke-opacity: 0.15; stroke-width: 1.5"/>
    <path d="M 138.883484 289.61925 
L 138.883484 36.17925 
" clip-path="url(#p31b511b18b)" style="fill: none; stroke: #e24a33; stroke-opacity: 0.15; stroke-width: 1.5"/>
    <path d="M 216.636912 289.61925 
L 216.636912 36.17925 
" clip-path="url(#p31b511b18b)" style="fill: none; stroke: #e24a33; stroke-opacity: 0.15; stroke-width: 1.5"/>
    <path d="M 216.636912 289.61925 
L 216.636912 36.17925 
" clip-path="url(#p31b511b18b)" style="fill: none; stroke: #e24a33; stroke-opacity: 0.15; stroke-width: 1.5"/>
    <path d="M 216.636912 289.61925 
L 216.636912 36.17925 
" clip-path="url(#p31b511b18b)" style="fill: none; stroke: #e24a33; stroke-opacity: 0.15; stroke-width: 1.5"/>
    <path d="M 216.636912 289.61925 
L 216.636912 36.17925 
" clip-path="url(#p31b511b18b)" style="fill: none; stroke: #e24a33; stroke-opacity: 0.15; stroke-width: 1.5"/>
    <path d="M 216.636912 289.61925 
L 216.636912 36.17925 
" clip-path="url(#p31b511b18b)" style="fill: none; stroke: #e24a33; stroke-opacity: 0.15; stroke-width: 1.5"/>
    <path d="M 216.636912 289.61925 
L 216.636912 36.17925 
" clip-path="url(#p31b511b18b)" style="fill: none; stroke: #e24a33; stroke-opacity: 0.15; stroke-width: 1.5"/>
    <path d="M 216.636912 289.61925 
L 216.636912 36.17925 
" clip-path="url(#p31b511b18b)" style="fill: none; stroke: #e24a33; stroke-opacity: 0.15; stroke-width: 1.5"/>
    <path d="M 216.636912 289.61925 
L 216.636912 36.17925 
" clip-path="url(#p31b511b18b)" style="fill: none; stroke: #e24a33; stroke-opacity: 0.15; stroke-width: 1.5"/>
    <path d="M 216.636912 289.61925 
L 216.636912 36.17925 
" clip-path="url(#p31b511b18b)" style="fill: none; stroke: #e24a33; stroke-opacity: 0.15; stroke-width: 1.5"/>
    <path d="M 216.636912 289.61925 
L 216.636912 36.17925 
" clip-path="url(#p31b511b18b)" style="fill: none; stroke: #e24a33; stroke-opacity: 0.15; stroke-width: 1.5"/>
    <path d="M 216.636912 289.61925 
L 216.636912 36.17925 
" clip-path="url(#p31b511b18b)" style="fill: none; stroke: #e24a33; stroke-opacity: 0.15; stroke-width: 1.5"/>
    <path d="M 216.636912 289.61925 
L 216.636912 36.17925 
" clip-path="url(#p31b511b18b)" style="fill: none; stroke: #e24a33; stroke-opacity: 0.15; stroke-width: 1.5"/>
    <path d="M 216.636912 289.61925 
L 216.636912 36.17925 
" clip-path="url(#p31b511b18b)" style="fill: none; stroke: #e24a33; stroke-opacity: 0.15; stroke-width: 1.5"/>
    <path d="M 216.636912 289.61925 
L 216.636912 36.17925 
" clip-path="url(#p31b511b18b)" style="fill: none; stroke: #e24a33; stroke-opacity: 0.15; stroke-width: 1.5"/>
    <path d="M 216.636912 289.61925 
L 216.636912 36.17925 
" clip-path="url(#p31b511b18b)" style="fill: none; stroke: #e24a33; stroke-opacity: 0.15; stroke-width: 1.5"/>
    <path d="M 216.636912 289.61925 
L 216.636912 36.17925 
" clip-path="url(#p31b511b18b)" style="fill: none; stroke: #e24a33; stroke-opacity: 0.15; stroke-width: 1.5"/>
    <path d="M 216.636912 289.61925 
L 216.636912 36.17925 
" clip-path="url(#p31b511b18b)" style="fill: none; stroke: #e24a33; stroke-opacity: 0.15; stroke-width: 1.5"/>
    <path d="M 216.636912 289.61925 
L 216.636912 36.17925 
" clip-path="url(#p31b511b18b)" style="fill: none; stroke: #e24a33; stroke-opacity: 0.15; stroke-width: 1.5"/>
    <path d="M 216.636912 289.61925 
L 216.636912 36.17925 
" clip-path="url(#p31b511b18b)" style="fill: none; stroke: #e24a33; stroke-opacity: 0.15; stroke-width: 1.5"/>
    <path d="M 216.636912 289.61925 
L 216.636912 36.17925 
" clip-path="url(#p31b511b18b)" style="fill: none; stroke: #e24a33; stroke-opacity: 0.15; stroke-width: 1.5"/>
    <path d="M 216.636912 289.61925 
L 216.636912 36.17925 
" clip-path="url(#p31b511b18b)" style="fill: none; stroke: #e24a33; stroke-opacity: 0.15; stroke-width: 1.5"/>
    <path d="M 216.636912 289.61925 
L 216.636912 36.17925 
" clip-path="url(#p31b511b18b)" style="fill: none; stroke: #e24a33; stroke-opacity: 0.15; stroke-width: 1.5"/>
    <path d="M 216.636912 289.61925 
L 216.636912 36.17925 
" clip-path="url(#p31b511b18b)" style="fill: none; stroke: #e24a33; stroke-opacity: 0.15; stroke-width: 1.5"/>
    <path d="M 316.626064 289.61925 
L 316.626064 36.17925 
" clip-path="url(#p31b511b18b)" style="fill: none; stroke: #e24a33; stroke-opacity: 0.15; stroke-width: 1.5"/>
    <path d="M 316.626064 289.61925 
L 316.626064 36.17925 
" clip-path="url(#p31b511b18b)" style="fill: none; stroke: #e24a33; stroke-opacity: 0.15; stroke-width: 1.5"/>
    <path d="M 316.626064 289.61925 
L 316.626064 36.17925 
" clip-path="url(#p31b511b18b)" style="fill: none; stroke: #e24a33; stroke-opacity: 0.15; stroke-width: 1.5"/>
    <path d="M 316.626064 289.61925 
L 316.626064 36.17925 
" clip-path="url(#p31b511b18b)" style="fill: none; stroke: #e24a33; stroke-opacity: 0.15; stroke-width: 1.5"/>
    <path d="M 316.626064 289.61925 
L 316.626064 36.17925 
" clip-path="url(#p31b511b18b)" style="fill: none; stroke: #e24a33; stroke-opacity: 0.15; stroke-width: 1.5"/>
    <path d="M 316.626064 289.61925 
L 316.626064 36.17925 
" clip-path="url(#p31b511b18b)" style="fill: none; stroke: #e24a33; stroke-opacity: 0.15; stroke-width: 1.5"/>
    <path d="M 316.626064 289.61925 
L 316.626064 36.17925 
" clip-path="url(#p31b511b18b)" style="fill: none; stroke: #e24a33; stroke-opacity: 0.15; stroke-width: 1.5"/>
    <path d="M 316.626064 289.61925 
L 316.626064 36.17925 
" clip-path="url(#p31b511b18b)" style="fill: none; stroke: #e24a33; stroke-opacity: 0.15; stroke-width: 1.5"/>
    <path d="M 316.626064 289.61925 
L 316.626064 36.17925 
" clip-path="url(#p31b511b18b)" style="fill: none; stroke: #e24a33; stroke-opacity: 0.15; stroke-width: 1.5"/>
    <path d="M 316.626064 289.61925 
L 316.626064 36.17925 
" clip-path="url(#p31b511b18b)" style="fill: none; stroke: #e24a33; stroke-opacity: 0.15; stroke-width: 1.5"/>
    <path d="M 316.626064 289.61925 
L 316.626064 36.17925 
" clip-path="url(#p31b511b18b)" style="fill: none; stroke: #e24a33; stroke-opacity: 0.15; stroke-width: 1.5"/>
    <path d="M 316.626064 289.61925 
L 316.626064 36.17925 
" clip-path="url(#p31b511b18b)" style="fill: none; stroke: #e24a33; stroke-opacity: 0.15; stroke-width: 1.5"/>
    <path d="M 382.858523 289.61925 
L 382.858523 36.17925 
" clip-path="url(#p31b511b18b)" style="fill: none; stroke: #e24a33; stroke-opacity: 0.15; stroke-width: 1.5"/>
    <path d="M 382.858523 289.61925 
L 382.858523 36.17925 
" clip-path="url(#p31b511b18b)" style="fill: none; stroke: #e24a33; stroke-opacity: 0.15; stroke-width: 1.5"/>
    <path d="M 382.858523 289.61925 
L 382.858523 36.17925 
" clip-path="url(#p31b511b18b)" style="fill: none; stroke: #e24a33; stroke-opacity: 0.15; stroke-width: 1.5"/>
    <path d="M 382.858523 289.61925 
L 382.858523 36.17925 
" clip-path="url(#p31b511b18b)" style="fill: none; stroke: #e24a33; stroke-opacity: 0.15; stroke-width: 1.5"/>
    <path d="M 382.858523 289.61925 
L 382.858523 36.17925 
" clip-path="url(#p31b511b18b)" style="fill: none; stroke: #e24a33; stroke-opacity: 0.15; stroke-width: 1.5"/>
    <path d="M 382.858523 289.61925 
L 382.858523 36.17925 
" clip-path="url(#p31b511b18b)" style="fill: none; stroke: #e24a33; stroke-opacity: 0.15; stroke-width: 1.5"/>
    <path d="M 382.858523 289.61925 
L 382.858523 36.17925 
" clip-path="url(#p31b511b18b)" style="fill: none; stroke: #e24a33; stroke-opacity: 0.15; stroke-width: 1.5"/>
   </g>
   <g id="patch_3">
    <path d="M 41.97125 289.61925 
L 41.97125 23.50725 
" style="fill: none; stroke: #ffffff; stroke-linejoin: miter; stroke-linecap: square"/>
   </g>
   <g id="patch_4">
    <path d="M 399.09125 289.61925 
L 399.09125 23.50725 
" style="fill: none; stroke: #ffffff; stroke-linejoin: miter; stroke-linecap: square"/>
   </g>
   <g id="patch_5">
    <path d="M 41.97125 289.61925 
L 399.09125 289.61925 
" style="fill: none; stroke: #ffffff; stroke-linejoin: miter; stroke-linecap: square"/>
   </g>
   <g id="patch_6">
    <path d="M 41.97125 23.50725 
L 399.09125 23.50725 
" style="fill: none; stroke: #ffffff; stroke-linejoin: miter; stroke-linecap: square"/>
   </g>
   <g id="text_18">
    <!-- History Alive -->
    <g transform="translate(180.92 17.50725) scale(0.144 -0.144)">
     <defs>
      <path id="ArialMT-48" d="M 513 0 
L 513 4581 
L 1119 4581 
L 1119 2700 
L 3500 2700 
L 3500 4581 
L 4106 4581 
L 4106 0 
L 3500 0 
L 3500 2159 
L 1119 2159 
L 1119 0 
L 513 0 
z
" transform="scale(0.015625)"/>
      <path id="ArialMT-73" d="M 197 991 
L 753 1078 
Q 800 744 1014 566 
Q 1228 388 1613 388 
Q 2000 388 2187 545 
Q 2375 703 2375 916 
Q 2375 1106 2209 1216 
Q 2094 1291 1634 1406 
Q 1016 1563 777 1677 
Q 538 1791 414 1992 
Q 291 2194 291 2438 
Q 291 2659 392 2848 
Q 494 3038 669 3163 
Q 800 3259 1026 3326 
Q 1253 3394 1513 3394 
Q 1903 3394 2198 3281 
Q 2494 3169 2634 2976 
Q 2775 2784 2828 2463 
L 2278 2388 
Q 2241 2644 2061 2787 
Q 1881 2931 1553 2931 
Q 1166 2931 1000 2803 
Q 834 2675 834 2503 
Q 834 2394 903 2306 
Q 972 2216 1119 2156 
Q 1203 2125 1616 2013 
Q 2213 1853 2448 1751 
Q 2684 1650 2818 1456 
Q 2953 1263 2953 975 
Q 2953 694 2789 445 
Q 2625 197 2315 61 
Q 2006 -75 1616 -75 
Q 969 -75 630 194 
Q 291 463 197 991 
z
" transform="scale(0.015625)"/>
      <path id="ArialMT-6f" d="M 213 1659 
Q 213 2581 725 3025 
Q 1153 3394 1769 3394 
Q 2453 3394 2887 2945 
Q 3322 2497 3322 1706 
Q 3322 1066 3130 698 
Q 2938 331 2570 128 
Q 2203 -75 1769 -75 
Q 1072 -75 642 372 
Q 213 819 213 1659 
z
M 791 1659 
Q 791 1022 1069 705 
Q 1347 388 1769 388 
Q 2188 388 2466 706 
Q 2744 1025 2744 1678 
Q 2744 2294 2464 2611 
Q 2184 2928 1769 2928 
Q 1347 2928 1069 2612 
Q 791 2297 791 1659 
z
" transform="scale(0.015625)"/>
      <path id="ArialMT-72" d="M 416 0 
L 416 3319 
L 922 3319 
L 922 2816 
Q 1116 3169 1280 3281 
Q 1444 3394 1641 3394 
Q 1925 3394 2219 3213 
L 2025 2691 
Q 1819 2813 1613 2813 
Q 1428 2813 1281 2702 
Q 1134 2591 1072 2394 
Q 978 2094 978 1738 
L 978 0 
L 416 0 
z
" transform="scale(0.015625)"/>
      <path id="ArialMT-79" d="M 397 -1278 
L 334 -750 
Q 519 -800 656 -800 
Q 844 -800 956 -737 
Q 1069 -675 1141 -563 
Q 1194 -478 1313 -144 
Q 1328 -97 1363 -6 
L 103 3319 
L 709 3319 
L 1400 1397 
Q 1534 1031 1641 628 
Q 1738 1016 1872 1384 
L 2581 3319 
L 3144 3319 
L 1881 -56 
Q 1678 -603 1566 -809 
Q 1416 -1088 1222 -1217 
Q 1028 -1347 759 -1347 
Q 597 -1347 397 -1278 
z
" transform="scale(0.015625)"/>
      <path id="ArialMT-20" transform="scale(0.015625)"/>
      <path id="ArialMT-41" d="M -9 0 
L 1750 4581 
L 2403 4581 
L 4278 0 
L 3588 0 
L 3053 1388 
L 1138 1388 
L 634 0 
L -9 0 
z
M 1313 1881 
L 2866 1881 
L 2388 3150 
Q 2169 3728 2063 4100 
Q 1975 3659 1816 3225 
L 1313 1881 
z
" transform="scale(0.015625)"/>
     </defs>
     <use xlink:href="#ArialMT-48"/>
     <use xlink:href="#ArialMT-69" transform="translate(72.216797 0)"/>
     <use xlink:href="#ArialMT-73" transform="translate(94.433594 0)"/>
     <use xlink:href="#ArialMT-74" transform="translate(144.433594 0)"/>
     <use xlink:href="#ArialMT-6f" transform="translate(172.216797 0)"/>
     <use xlink:href="#ArialMT-72" transform="translate(227.832031 0)"/>
     <use xlink:href="#ArialMT-79" transform="translate(261.132812 0)"/>
     <use xlink:href="#ArialMT-20" transform="translate(311.132812 0)"/>
     <use xlink:href="#ArialMT-41" transform="translate(333.416016 0)"/>
     <use xlink:href="#ArialMT-6c" transform="translate(400.115234 0)"/>
     <use xlink:href="#ArialMT-69" transform="translate(422.332031 0)"/>
     <use xlink:href="#ArialMT-76" transform="translate(444.548828 0)"/>
     <use xlink:href="#ArialMT-65" transform="translate(494.548828 0)"/>
    </g>
   </g>
   <g id="legend_1">
    <g id="patch_7">
     <path d="M 48.27125 285.11925 
L 106.588438 285.11925 
Q 108.388438 285.11925 108.388438 283.31925 
L 108.388438 271.488469 
Q 108.388438 269.688469 106.588438 269.688469 
L 48.27125 269.688469 
Q 46.47125 269.688469 46.47125 271.488469 
L 46.47125 283.31925 
Q 46.47125 285.11925 48.27125 285.11925 
z
" style="fill: #e5e5e5; opacity: 0.8; stroke: #cccccc; stroke-width: 0.5; stroke-linejoin: miter"/>
    </g>
    <g id="line2d_32">
     <path d="M 50.07125 276.5805 
L 59.07125 276.5805 
L 68.07125 276.5805 
" style="fill: none; stroke: #e24a33; stroke-width: 1.5; stroke-linecap: square"/>
    </g>
    <g id="text_19">
     <!-- P_alive -->
     <g transform="translate(75.27125 279.7305) scale(0.09 -0.09)">
      <defs>
       <path id="ArialMT-5f" d="M -97 -1272 
L -97 -866 
L 3631 -866 
L 3631 -1272 
L -97 -1272 
z
" transform="scale(0.015625)"/>
      </defs>
      <use xlink:href="#ArialMT-50"/>
      <use xlink:href="#ArialMT-5f" transform="translate(66.699219 0)"/>
      <use xlink:href="#ArialMT-61" transform="translate(122.314453 0)"/>
      <use xlink:href="#ArialMT-6c" transform="translate(177.929688 0)"/>
      <use xlink:href="#ArialMT-69" transform="translate(200.146484 0)"/>
      <use xlink:href="#ArialMT-76" transform="translate(222.363281 0)"/>
      <use xlink:href="#ArialMT-65" transform="translate(272.363281 0)"/>
     </g>
    </g>
   </g>
  </g>
 </g>
 <defs>
  <clipPath id="p31b511b18b">
   <rect x="41.97125" y="23.50725" width="357.12" height="266.112"/>
  </clipPath>
 </defs>
</svg>
